<svg width="45" height="44" viewBox="0 0 45 44" fill="none" xmlns="http://www.w3.org/2000/svg">
<path d="M28.5516 22.0691C28.5516 18.7461 25.8517 16.0462 22.5288 16.0462C19.2058 16.0462 16.5059 18.7461 16.5059 22.0691C16.5059 25.3921 19.2058 28.092 22.5288 28.092C25.8517 28.092 28.5516 25.3921 28.5516 22.0691Z" fill="white"/>
<path d="M21.6389 0.0246967C10.2458 0.558746 1.01863 9.78594 0.484584 21.179C0.0098733 31.4149 6.44814 40.2268 15.5567 43.3124C17.8115 44.0838 20.1554 42.4223 20.1554 40.0487C20.1554 38.5653 19.2357 37.2598 17.8412 36.7851C11.5809 34.6786 7.13053 28.6854 7.39756 21.6537C7.69425 13.7023 14.1622 7.23437 22.1136 6.93767C30.8364 6.61131 38.0461 13.5836 38.0461 22.2471C38.0461 28.893 33.833 34.5302 27.9288 36.6664C26.564 37.1708 25.6443 38.4169 25.6443 39.8707V40.0191C25.6443 42.363 27.9585 44.0244 30.154 43.253C38.7878 40.1674 44.959 31.9193 44.959 22.2471C44.959 9.60792 34.4264 -0.568692 21.6389 0.0246967Z" fill="white"/>
</svg>
