<svg width="466" height="169" viewBox="0 0 466 169" fill="none" xmlns="http://www.w3.org/2000/svg">
<path d="M0.776123 42.5941L5.58998 31.2475C5.58998 31.2475 8.73978 33.505 12.1273 33.505C15.8714 33.505 17.5949 32.9703 18.5458 27.5644L23.3002 0.594055H38.7521L33.9977 27.5644C32.3336 37.0099 29.0649 45.1485 13.1376 45.1485C6.30314 45.1485 0.776123 42.5941 0.776123 42.5941Z" fill="white"/>
<path d="M39.0492 26.7327L43.6847 0.594055H59.1366L54.7982 25.1287C53.669 31.4851 54.5605 34.0396 58.4829 34.0396C62.4053 34.0396 64.2476 31.5446 65.3768 25.1287L69.7152 0.594055H85.1671L80.5315 26.7327C77.7977 42.0594 66.3871 45.1485 56.5217 45.1485C45.8242 45.1485 36.5531 40.9307 39.0492 26.7327Z" fill="white"/>
<path d="M111.019 21.9802H124.569L121.301 40.6931C118.508 42.3564 112.743 45.1485 104.601 45.1485C93.6063 45.1485 84.5134 41.8218 84.5134 28.9307C84.5134 11.0495 95.2703 0 112.565 0C120.885 0 125.045 3.26733 125.045 3.26733L120.647 14.6139C120.647 14.6139 116.368 11.6436 110.544 11.6436C104.185 11.6436 100.381 17.5842 100.381 27.4455C100.381 31.901 102.343 33.505 106.681 33.505C107.513 33.505 108.286 33.505 108.999 33.4455L111.019 21.9802Z" fill="white"/>
<path d="M151.551 36.5941H140.556L136.753 44.5545H121.42L144.241 0.594055H160.525L167.894 44.5545H152.561L151.551 36.5941ZM150.243 26.495L149.174 18.6535L145.43 26.495H150.243Z" fill="white"/>
<path d="M208.307 11.8812H197.372L191.607 44.5545H176.155L181.92 11.8812H170.925L172.946 0.594055H210.327L208.307 11.8812Z" fill="white"/>
<path d="M227.978 11.8812L227.027 17.1089H237.665L235.882 27.2079H225.244L224.175 33.2673H241.053L239.032 44.5545H206.761L214.487 0.594055H246.758L244.797 11.8812H227.978Z" fill="white"/>
<path d="M275.938 33.2673L273.918 44.5545H244.203L251.929 0.594055H267.38L261.616 33.2673H275.938Z" fill="white"/>
<path d="M305.594 36.5941H294.599L290.796 44.5545H275.463L298.284 0.594055H314.568L321.937 44.5545H306.604L305.594 36.5941ZM304.287 26.495L303.217 18.6535L299.473 26.495H304.287Z" fill="white"/>
<path d="M325.325 28.9307C325.325 11.0495 336.082 0 353.376 0C361.696 0 365.856 3.26733 365.856 3.26733L361.459 14.6139C361.459 14.6139 357.18 11.6436 351.355 11.6436C344.996 11.6436 341.193 17.5842 341.193 27.4455C341.193 31.901 343.154 33.505 347.492 33.505C353.792 33.505 357.774 31.1287 359.616 30L359.319 41.8218C357.001 43.0099 351.95 45.1485 345.412 45.1485C334.418 45.1485 325.325 41.8218 325.325 28.9307Z" fill="white"/>
<path d="M365.5 28.6337C365.5 10.2772 375.603 0 392.778 0C404.546 0 411.618 4.87129 411.618 16.5149C411.618 35.1089 401.812 45.1485 384.815 45.1485C372.988 45.1485 365.5 40.4554 365.5 28.6337ZM395.631 18.2376C395.631 14.0198 393.908 12.0594 390.282 12.0594C385.053 12.0594 381.427 18.297 381.427 27.2079C381.427 31.3069 383.032 33.1485 386.717 33.1485C392.006 33.1485 395.631 27.0891 395.631 18.2376Z" fill="white"/>
<path d="M459.519 0.594055L451.793 44.5545H439.907L428.437 22.1584L428.496 27.9208L425.584 44.5545H412.509L420.235 0.594055H434.617L444.245 20.7327L444.067 14.198L446.444 0.594055H459.519Z" fill="white"/>
<path d="M6.12488 47.3465L10.9387 36C10.9387 36 14.0885 38.2574 17.4761 38.2574C21.2202 38.2574 22.9437 37.7228 23.8945 32.3168L28.649 5.34653H44.1008L39.3464 32.3168C37.6824 41.7624 34.4137 49.901 18.4864 49.901C11.6519 49.901 6.12488 47.3465 6.12488 47.3465Z" stroke="white" stroke-miterlimit="10"/>
<path d="M44.3979 31.4851L49.0335 5.34653H64.4854L60.147 29.8812C59.0178 36.2376 59.9093 38.7921 63.8317 38.7921C67.7541 38.7921 69.5964 36.297 70.7256 29.8812L75.064 5.34653H90.5159L85.8803 31.4851C83.1465 46.8119 71.7359 49.901 61.8705 49.901C51.173 49.901 41.9019 45.6832 44.3979 31.4851Z" stroke="white" stroke-miterlimit="10"/>
<path d="M116.368 26.7327H129.918L126.65 45.4455C123.856 47.1089 118.092 49.901 109.95 49.901C98.955 49.901 89.8622 46.5743 89.8622 33.6832C89.8622 15.802 100.619 4.75247 117.913 4.75247C126.234 4.75247 130.394 8.0198 130.394 8.0198L125.996 19.3663C125.996 19.3663 121.717 16.396 115.893 16.396C109.534 16.396 105.73 22.3366 105.73 32.198C105.73 36.6535 107.691 38.2574 112.03 38.2574C112.862 38.2574 113.634 38.2574 114.347 38.198L116.368 26.7327Z" stroke="white" stroke-miterlimit="10"/>
<path d="M156.9 41.3465H145.905L142.101 49.3069H126.768L149.59 5.34653H165.874L173.243 49.3069H157.91L156.9 41.3465ZM155.592 31.2475L154.522 23.4059L150.778 31.2475H155.592Z" stroke="white" stroke-miterlimit="10"/>
<path d="M213.656 16.6337H202.72L196.956 49.3069H181.504L187.269 16.6337H176.274L178.295 5.34653H215.676L213.656 16.6337Z" stroke="white" stroke-miterlimit="10"/>
<path d="M233.327 16.6337L232.376 21.8614H243.014L241.231 31.9604H230.593L229.523 38.0198H246.402L244.381 49.3069H212.11L219.836 5.34653H252.107L250.146 16.6337H233.327Z" stroke="white" stroke-miterlimit="10"/>
<path d="M281.287 38.0198L279.267 49.3069H249.552L257.277 5.34653H272.729L266.965 38.0198H281.287Z" stroke="white" stroke-miterlimit="10"/>
<path d="M310.943 41.3465H299.948L296.145 49.3069H280.812L303.633 5.34653H319.917L327.286 49.3069H311.953L310.943 41.3465ZM309.635 31.2475L308.566 23.4059L304.822 31.2475H309.635Z" stroke="white" stroke-miterlimit="10"/>
<path d="M330.674 33.6832C330.674 15.802 341.431 4.75247 358.725 4.75247C367.045 4.75247 371.205 8.0198 371.205 8.0198L366.807 19.3663C366.807 19.3663 362.529 16.396 356.704 16.396C350.345 16.396 346.542 22.3366 346.542 32.198C346.542 36.6535 348.503 38.2574 352.841 38.2574C359.141 38.2574 363.123 35.8812 364.965 34.7525L364.668 46.5743C362.35 47.7624 357.299 49.901 350.761 49.901C339.767 49.901 330.674 46.5743 330.674 33.6832Z" stroke="white" stroke-miterlimit="10"/>
<path d="M370.849 33.3861C370.849 15.0297 380.952 4.75247 398.127 4.75247C409.894 4.75247 416.967 9.62376 416.967 21.2673C416.967 39.8614 407.161 49.901 390.163 49.901C378.337 49.901 370.849 45.2079 370.849 33.3861ZM400.98 22.9901C400.98 18.7723 399.256 16.8119 395.631 16.8119C390.401 16.8119 386.776 23.0495 386.776 31.9604C386.776 36.0594 388.381 37.901 392.065 37.901C397.355 37.901 400.98 31.8416 400.98 22.9901Z" stroke="white" stroke-miterlimit="10"/>
<path d="M464.867 5.34653L457.141 49.3069H445.255L433.785 26.9109L433.845 32.6733L430.933 49.3069H417.858L425.584 5.34653H439.966L449.594 25.4851L449.415 18.9505L451.793 5.34653H464.867Z" stroke="white" stroke-miterlimit="10"/>
<path d="M76.6686 137.881H76.6092C74.232 137.881 72.0331 139.188 70.8445 141.267C68.5861 145.307 65.5552 148.574 61.8111 151.01C57.2944 153.921 52.0051 155.406 46.1215 155.406C38.039 155.406 31.2045 152.436 25.7369 146.554C20.2099 140.673 17.4166 133.188 17.4166 124.396C17.4166 115.545 20.2099 108.059 25.6774 102.119C31.145 96.1782 37.8607 93.2079 45.646 93.2079C51.6485 93.2079 56.8189 94.5743 61.0979 97.1881C64.7826 99.4455 68.0513 102.832 70.785 107.287C71.9737 109.188 74.1131 110.376 76.3715 110.376C78.8081 110.376 80.9476 109.129 82.1362 106.99C83.3248 104.851 83.2654 102.297 81.958 100.218C78.927 95.3465 75.1235 91.2475 70.6068 88.0396C63.7723 83.2277 55.7492 80.7327 46.7752 80.7327C34.8297 80.7327 24.5483 85.0099 16.228 93.5049C7.90778 101.941 3.68823 112.455 3.68823 124.634C3.68823 136.574 7.84835 146.911 16.0497 155.347C24.2511 163.842 34.5326 168.119 46.4781 168.119C55.7492 168.119 63.9506 165.624 70.8445 160.693C75.48 157.366 79.4025 153.03 82.374 147.861C83.5626 145.842 83.5626 143.347 82.374 141.327C81.2448 139.069 79.1053 137.881 76.6686 137.881Z" fill="white"/>
<path d="M101.629 82.8119C98.3013 83.1089 95.8052 86.0792 95.8052 89.4653V159.149C95.6863 160.871 96.2807 162.475 97.4693 163.723C99.2522 165.683 102.224 166.337 104.898 165.149C107.275 164.079 108.702 161.584 108.702 158.97V89.2277C108.642 85.4851 105.433 82.4554 101.629 82.8119Z" fill="white"/>
<path d="M149.946 82.5148C149.233 82.5148 148.46 82.6337 147.747 82.8713C146.559 83.2871 145.37 83.7624 144.241 84.4158C142.161 85.5446 140.14 87.1485 138.298 89.1683C138.238 89.2277 138.238 89.2277 138.179 89.2277C138.179 89.2277 138.001 89.2277 138.001 89.0495C138.001 85.604 135.208 82.8119 131.761 82.8119C128.314 82.8119 125.52 85.604 125.52 89.0495V159.208C125.52 162.832 128.432 165.743 132.058 165.743H132.177C135.802 165.743 138.714 162.832 138.714 159.208V115.96C138.714 108.95 140.021 103.901 142.577 100.871C144.479 98.6733 147.391 97.0693 151.254 96.2376C154.522 95.5248 156.781 92.7327 156.721 89.4059C156.84 85.604 153.75 82.5148 149.946 82.5148Z" fill="white"/>
<path d="M236.833 138.356C233.565 137.049 230.118 138.475 228.513 141.267C226.255 145.307 223.224 148.574 219.48 151.01C214.963 153.921 209.674 155.406 203.79 155.406C195.708 155.406 188.873 152.436 183.405 146.554C177.878 140.673 175.085 133.188 175.085 124.396C175.085 115.545 177.878 108.059 183.346 102.119C188.814 96.1782 195.529 93.2079 203.315 93.2079C209.317 93.2079 214.487 94.5743 218.766 97.1881C222.451 99.4455 225.72 102.832 228.454 107.287C229.642 109.188 231.782 110.376 234.04 110.376C236.477 110.376 238.616 109.129 239.805 106.99C240.993 104.851 240.934 102.297 239.627 100.218C236.596 95.3465 232.792 91.2475 228.275 88.0396C221.441 83.2277 213.418 80.7327 204.444 80.7327C192.498 80.7327 182.217 85.0099 173.897 93.5049C165.576 102 161.357 112.455 161.357 124.634C161.357 136.574 165.517 146.911 173.718 155.347C181.92 163.842 192.201 168.119 204.147 168.119C213.418 168.119 221.619 165.624 228.513 160.693C233.149 157.366 237.012 153.03 239.983 147.861C241.35 145.485 241.112 142.574 239.27 140.317C238.735 139.366 237.844 138.713 236.833 138.356Z" fill="white"/>
<path d="M316.767 82.8119C313.201 82.9307 310.468 85.9604 310.468 89.5247V123.564C310.468 130.455 310.23 135.386 309.695 138.119C309.219 140.792 308.387 143.109 307.258 145.069C305.297 148.337 302.623 150.95 299.354 152.673C296.085 154.396 292.222 155.287 287.825 155.287C280.218 155.287 274.69 153.208 271.422 149.049C268.094 144.772 266.43 137.287 266.43 126.713V89.4059C266.43 85.901 263.696 82.9307 260.189 82.8119C256.505 82.6931 253.474 85.604 253.474 89.2871V126.059C253.474 140.792 256.148 151.545 261.438 158.02C266.786 164.554 275.582 167.881 287.527 167.881C293.114 167.881 297.987 166.99 302.028 165.208C304.881 163.96 307.555 162.119 309.992 159.802C310.17 159.624 310.527 159.743 310.527 159.98C310.943 163.307 313.855 165.921 317.302 165.743C320.808 165.564 323.542 162.594 323.542 159.03V89.3465C323.542 85.6039 320.452 82.6336 316.767 82.8119Z" fill="white"/>
<path d="M345.591 56.8515C341.966 56.8515 339.053 59.7624 339.053 63.3861V159.149C339.053 162.772 341.966 165.683 345.591 165.683C349.216 165.683 352.128 162.772 352.128 159.149V63.3861C352.128 59.7624 349.216 56.8515 345.591 56.8515Z" fill="white"/>
<path d="M102.105 56.4356C97.8259 56.4356 94.3789 59.8812 94.3789 64.1584C94.3789 68.4356 97.8259 71.8812 102.105 71.8812C106.384 71.8812 109.831 68.4356 109.831 64.1584C109.831 59.8812 106.384 56.4356 102.105 56.4356Z" fill="white"/>
<path d="M407.696 80.6733C385.35 81.7426 367.223 99.8614 366.154 122.198C365.203 142.337 377.861 159.624 395.75 165.683C400.207 167.168 404.783 163.901 404.783 159.267C404.783 156.356 402.941 153.743 400.207 152.851C387.965 148.752 379.228 136.931 379.704 123.149C380.298 107.584 393.016 94.8713 408.587 94.2772C425.762 93.6238 439.847 107.347 439.847 124.337C439.847 137.347 431.586 148.455 419.998 152.614C417.323 153.564 415.481 156.059 415.481 158.851V159.089C415.481 163.663 419.998 166.99 424.336 165.446C441.274 159.446 453.397 143.287 453.397 124.277C453.516 99.4455 432.835 79.4851 407.696 80.6733Z" fill="white"/>
<path d="M421.662 124.277C421.662 130.812 416.372 136.099 409.835 136.099C403.298 136.099 398.008 130.812 398.008 124.277C398.008 117.743 403.298 112.455 409.835 112.455C416.372 112.455 421.662 117.743 421.662 124.277Z" fill="white"/>
</svg>
