<svg width="213" height="79" viewBox="0 0 213 79" fill="none" xmlns="http://www.w3.org/2000/svg">
<g clip-path="url(#clip0_269_4971)" filter="url(#filter0_d_269_4971)">
<path d="M8.61773 41.6164L15.0309 5.07715H36.3257L30.3237 39.3691C28.7615 48.275 29.9948 51.854 35.4213 51.854C40.8478 51.854 43.3966 48.3582 44.9588 39.3691L50.9608 5.07715H72.2556L65.8425 41.6164C62.0604 63.0904 46.3565 67.4185 32.7081 67.4185C17.9085 67.4185 5.16451 61.509 8.61773 41.6164Z" stroke="white" stroke-width="0.7361" stroke-miterlimit="10"/>
<path d="M128 21.7238C128 39.0363 115.01 49.8565 94.2904 49.8565H91.7416L88.864 66.5863H67.5691L78.2576 5.1605H102.101C110.323 5.07727 128 5.4102 128 21.7238ZM106.048 24.8034C106.048 20.4753 102.019 20.4753 97.8259 20.4753H96.9215L94.4549 34.7914H95.3593C102.019 34.7914 106.048 31.8782 106.048 24.8034Z" stroke="white" stroke-width="0.7361" stroke-miterlimit="10"/>
<path d="M122.656 60.76L130.714 44.4463C131.783 45.1954 142.142 51.6044 151.433 51.6044C153.735 51.6044 156.942 51.4379 156.942 48.8577C156.942 46.111 152.255 44.7793 146.747 42.4488C139.511 39.4524 131.043 35.1243 131.043 24.9699C131.043 12.0688 141.32 4.32812 158.175 4.32812C174.126 4.32812 181.279 8.98916 181.443 8.98916L176.017 24.304C175.77 24.304 166.233 19.1436 158.34 19.1436C153.982 19.1436 151.515 19.8927 151.515 22.5561C151.515 24.9699 154.969 26.4681 159.491 28.1327C166.726 30.7962 177.414 33.2931 177.414 44.8625C177.414 60.0109 166.726 67.4186 147.815 67.4186C133.18 67.4186 122.903 60.76 122.656 60.76Z" stroke="white" stroke-width="0.7361" stroke-miterlimit="10"/>
<path d="M182.512 63.2569C182.512 58.5126 186.212 54.9336 191.145 54.9336C194.763 54.9336 197.476 56.848 197.476 60.3438C197.476 65.1713 193.694 68.7503 188.761 68.7503C185.143 68.7503 182.512 66.8359 182.512 63.2569ZM189.583 24.2207L192.872 5.1604H207.671L204.382 24.2207L195.914 54.1845H187.281L189.583 24.2207Z" stroke="white" stroke-width="0.7361" stroke-miterlimit="10"/>
<path d="M5.57569 37.3715L11.9888 0.832275H33.2837L27.2816 35.1242C25.7195 44.0301 26.9528 47.6091 32.3793 47.6091C37.8057 47.6091 40.3545 44.1133 41.9167 35.1242L47.9187 0.832275H69.2136L62.8005 37.3715C59.0184 58.7623 43.3144 63.0904 29.666 63.0904C14.9487 63.0904 2.12247 57.1809 5.57569 37.3715Z" fill="white"/>
<path d="M124.958 17.3956C124.958 34.708 111.968 45.5283 91.2482 45.5283H88.6994L85.8217 62.1749H64.5269L75.2154 0.832275H99.0591C107.281 0.832275 124.958 1.16521 124.958 17.3956ZM103.006 20.4752C103.006 16.1471 98.9768 16.1471 94.7836 16.1471H93.8792L91.4126 30.4632H92.3171C98.9768 30.4632 103.006 27.55 103.006 20.4752Z" fill="white"/>
<path d="M119.614 56.4318L127.672 40.1182C128.74 40.8673 139.1 47.2762 148.391 47.2762C150.693 47.2762 153.9 47.1098 153.9 44.5296C153.9 41.7829 149.213 40.4511 143.704 38.1206C136.469 35.1242 128 30.7961 128 20.6417C128 7.74065 138.278 0 155.133 0C171.083 0 178.237 4.66104 178.401 4.66104L172.974 19.9759C172.728 19.9759 163.19 14.8154 155.297 14.8154C150.94 14.8154 148.473 15.5645 148.473 18.228C148.473 20.6417 151.926 22.1399 156.448 23.8046C163.684 26.468 174.372 28.965 174.372 40.5344C174.372 55.6828 163.684 63.0905 144.773 63.0905C130.138 63.0905 119.861 56.4318 119.614 56.4318Z" fill="white"/>
<path d="M179.47 58.9288C179.47 54.1845 183.17 50.6055 188.103 50.6055C191.72 50.6055 194.434 52.5199 194.434 56.0156C194.434 60.8431 190.652 64.4221 185.718 64.4221C182.101 64.4221 179.47 62.5078 179.47 58.9288ZM186.541 19.8926L189.829 0.832275H204.629L201.34 19.8926L192.872 49.8564H184.238L186.541 19.8926Z" fill="white"/>
</g>
<defs>
<filter id="filter0_d_269_4971" x="0" y="0" width="213" height="79" filterUnits="userSpaceOnUse" color-interpolation-filters="sRGB">
<feFlood flood-opacity="0" result="BackgroundImageFix"/>
<feColorMatrix in="SourceAlpha" type="matrix" values="0 0 0 0 0 0 0 0 0 0 0 0 0 0 0 0 0 0 127 0" result="hardAlpha"/>
<feOffset dy="5"/>
<feGaussianBlur stdDeviation="2.5"/>
<feComposite in2="hardAlpha" operator="out"/>
<feColorMatrix type="matrix" values="0 0 0 0 0 0 0 0 0 0 0 0 0 0 0 0 0 0 0.4 0"/>
<feBlend mode="normal" in2="BackgroundImageFix" result="effect1_dropShadow_269_4971"/>
<feBlend mode="normal" in="SourceGraphic" in2="effect1_dropShadow_269_4971" result="shape"/>
</filter>
<clipPath id="clip0_269_4971">
<rect width="203" height="69" fill="white" transform="translate(5)"/>
</clipPath>
</defs>
</svg>
