<svg width="964" height="178" viewBox="0 0 964 178" fill="none" xmlns="http://www.w3.org/2000/svg">
<path d="M36.5566 130.53L29.9475 168.739H0L6.6091 130.53L23.7515 70.4281H41.1004L36.5566 130.53ZM50.8075 52.4596C50.8075 61.9602 43.5788 68.9824 33.252 68.9824C26.0233 68.9824 20.6534 65.2648 20.6534 58.2426C20.6534 48.742 28.2952 41.7199 38.2089 41.7199C45.4376 41.7199 50.8075 45.2309 50.8075 52.4596Z" fill="#F3FF00"/>
<path d="M210.045 1.8586L138.377 136.932H93.1465L68.7754 1.8586H117.104L127.431 70.6346L161.922 1.8586H210.045Z" fill="#F3FF00"/>
<path d="M252.592 112.561H218.927L207.154 137.139H160.064L230.286 1.8586H280.267L302.986 137.139H255.896L252.592 112.561ZM248.668 81.5809L245.363 57.4164L233.797 81.5809H248.668Z" fill="#F3FF00"/>
<path d="M482.877 1.8586L459.126 137.139H415.341L427.113 70.8411L388.904 114.833H385.6L362.468 70.8411L350.695 137.139H306.91L330.455 1.8586H374.24L398.818 45.0243L438.886 1.8586H482.877Z" fill="#F3FF00"/>
<path d="M481.844 87.9837C481.844 31.5998 512.824 0 565.697 0C601.84 0 623.526 15.077 623.526 50.8075C623.526 108.018 593.372 138.791 541.119 138.791C504.769 138.791 481.844 124.334 481.844 87.9837ZM574.371 56.1774C574.371 43.1657 569.001 37.1762 557.848 37.1762C541.739 37.1762 530.586 56.3839 530.586 83.853C530.586 96.4516 535.543 102.028 546.902 102.028C563.218 102.028 574.371 83.2334 574.371 56.1774Z" fill="#F3FF00"/>
<path d="M629.516 87.9837C629.516 31.5998 660.496 0 713.369 0C749.512 0 771.198 15.077 771.198 50.8075C771.198 108.018 741.044 138.791 688.791 138.791C652.648 138.791 629.516 124.334 629.516 87.9837ZM722.25 56.1774C722.25 43.1657 716.88 37.1762 705.727 37.1762C689.617 37.1762 678.464 56.3839 678.464 83.853C678.464 96.4516 683.421 102.028 694.781 102.028C711.097 102.028 722.25 83.2334 722.25 56.1774Z" fill="#F3FF00"/>
<path d="M765.623 124.334L783.592 88.6035C785.863 90.2558 808.995 104.3 829.855 104.3C835.019 104.3 842.041 103.887 842.041 98.3106C842.041 92.3211 831.714 89.4296 819.322 84.2663C803.212 77.6572 784.418 68.1566 784.418 45.6443C784.418 17.3491 807.343 0.206734 844.932 0.206734C880.456 0.206734 896.359 10.5335 896.772 10.5335L884.793 44.1986C884.174 44.1986 863.107 32.8392 845.345 32.8392C835.638 32.8392 830.268 34.4914 830.268 40.2744C830.268 45.6443 837.91 48.9489 848.03 52.4599C864.14 58.2429 888.098 63.8193 888.098 89.4296C888.098 122.682 864.346 139.204 822.213 139.204C788.961 138.791 766.243 124.334 765.623 124.334Z" fill="#F3FF00"/>
<path d="M899.043 129.703C899.043 119.377 907.304 111.528 918.251 111.528C926.306 111.528 932.295 115.659 932.295 123.507C932.295 134.041 923.827 141.889 912.881 141.889C904.826 141.682 899.043 137.552 899.043 129.703ZM914.74 43.7851L921.968 1.8586H954.807L947.579 43.7851L928.784 109.67H909.576L914.74 43.7851Z" fill="#F3FF00"/>
<path d="M44.8183 138.791L38.2092 177H8.26172L14.8708 138.791L32.0132 78.6894H49.3621L44.8183 138.791ZM59.0692 60.7209C59.0692 70.2215 51.8405 77.2437 41.5138 77.2437C34.2851 77.2437 28.9152 73.5261 28.9152 66.5039C28.9152 57.0033 36.5569 49.9811 46.4706 49.9811C53.6993 49.9811 59.0692 53.4922 59.0692 60.7209Z" stroke="#F3FF00" stroke-miterlimit="10"/>
<path d="M218.307 10.1199L146.639 145.193H101.408L77.0371 10.1199H125.366L135.693 78.8959L170.184 10.1199H218.307Z" stroke="#F3FF00" stroke-miterlimit="10"/>
<path d="M260.854 120.822H227.188L215.416 145.4H168.326L238.548 10.1199H288.529L311.248 145.4H264.158L260.854 120.822ZM256.929 89.8422L253.625 65.6776L242.059 89.8422H256.929Z" stroke="#F3FF00" stroke-miterlimit="10"/>
<path d="M491.139 10.1199L467.388 145.4H423.602L435.375 79.1024L397.166 123.094H393.861L370.73 79.1024L358.957 145.4H315.172L338.717 10.1199H382.502L407.08 53.2856L447.147 10.1199H491.139Z" stroke="#F3FF00" stroke-miterlimit="10"/>
<path d="M490.105 96.2449C490.105 39.861 521.086 8.26128 573.958 8.26128C610.102 8.26128 631.788 23.3383 631.788 59.0687C631.788 116.279 601.634 147.052 549.381 147.052C513.031 147.052 490.105 132.595 490.105 96.2449ZM582.633 64.4386C582.633 51.427 577.263 45.4375 566.11 45.4375C550 45.4375 538.848 64.6452 538.848 92.1143C538.848 104.713 543.804 110.289 555.164 110.289C571.48 110.289 582.633 91.4947 582.633 64.4386Z" stroke="#F3FF00" stroke-miterlimit="10"/>
<path d="M637.779 96.2449C637.779 39.861 668.759 8.26128 721.632 8.26128C757.776 8.26128 779.462 23.3383 779.462 59.0687C779.462 116.279 749.308 147.052 697.055 147.052C660.911 147.052 637.779 132.595 637.779 96.2449ZM730.513 64.4386C730.513 51.427 725.143 45.4375 713.991 45.4375C697.881 45.4375 686.728 64.6452 686.728 92.1143C686.728 104.713 691.685 110.289 703.044 110.289C719.36 110.289 730.513 91.4947 730.513 64.4386Z" stroke="#F3FF00" stroke-miterlimit="10"/>
<path d="M773.885 132.595L791.853 96.8648C794.125 98.517 817.257 112.561 838.117 112.561C843.28 112.561 850.303 112.148 850.303 106.572C850.303 100.582 839.976 97.6909 827.584 92.5275C811.474 85.9184 792.679 76.4178 792.679 53.9056C792.679 25.6104 815.605 8.46802 853.194 8.46802C888.718 8.46802 904.621 18.7947 905.034 18.7947L893.055 52.4599C892.435 52.4599 871.369 41.1005 853.607 41.1005C843.9 41.1005 838.53 42.7527 838.53 48.5357C838.53 53.9056 846.172 57.2101 856.292 60.7212C872.402 66.5042 896.36 72.0806 896.36 97.6909C896.36 130.943 872.608 147.466 830.475 147.466C797.223 147.053 774.504 132.595 773.885 132.595Z" stroke="#F3FF00" stroke-miterlimit="10"/>
<path d="M907.307 137.965C907.307 127.638 915.568 119.79 926.514 119.79C934.569 119.79 940.559 123.92 940.559 131.769C940.559 142.302 932.091 150.15 921.144 150.15C913.09 149.944 907.307 145.813 907.307 137.965ZM923.003 52.0464L930.232 10.1199H963.071L955.842 52.0464L937.048 117.931H917.84L923.003 52.0464Z" stroke="#F3FF00" stroke-miterlimit="10"/>
</svg>
