<svg width="582" height="179" viewBox="0 0 582 179" fill="none" xmlns="http://www.w3.org/2000/svg">
<path d="M37.1095 130.827L30.4005 169.614H0L6.70907 130.827L24.1107 69.8164H41.722L37.1095 130.827ZM51.576 51.3664C51.576 61.0107 44.2379 68.1391 33.755 68.1391C26.417 68.1391 20.9658 64.3652 20.9658 57.2369C20.9658 47.5926 28.7232 40.4642 38.7868 40.4642C46.1249 40.4642 51.576 44.238 51.576 51.3664Z" fill="#F3FF00"/>
<path d="M188.273 90.1531C188.273 121.392 166.049 137.326 124.747 137.326H54.0918L78.2025 0H142.568C170.662 0 190.789 6.49941 190.789 29.7715C190.789 48.0118 183.661 59.3333 169.823 64.3651C179.887 68.3486 188.273 76.106 188.273 90.1531ZM139.842 90.9918C139.842 85.1213 134.81 84.2827 127.892 84.2827H111.538L108.393 101.894H128.101C133.343 102.104 139.842 98.9588 139.842 90.9918ZM140.471 42.5607C140.471 36.8999 135.649 35.2226 130.827 35.2226H120.344L117.199 52.8339H126.214C133.762 52.8339 140.471 50.7373 140.471 42.5607Z" fill="#F3FF00"/>
<path d="M214.271 0H262.492L238.382 137.326H190.16L214.271 0Z" fill="#F3FF00"/>
<path d="M320.359 35.2226L317.423 51.576H350.549L344.889 83.0247H311.763L308.408 101.894H361.032L354.742 137.117H254.106L278.427 0H379.063L372.983 35.2226H320.359Z" fill="#F3FF00"/>
<path d="M514.083 0L489.972 137.326H452.863L417.011 67.51L417.221 85.5406L408.206 137.536H367.322L391.433 0H436.3L466.281 62.8975L465.652 42.5607L473.2 0H514.083Z" fill="#F3FF00"/>
<path d="M515.34 129.779C515.34 119.296 523.726 111.329 534.838 111.329C543.015 111.329 549.095 115.522 549.095 123.489C549.095 134.181 540.499 142.148 529.387 142.148C521.21 142.148 515.34 137.746 515.34 129.779ZM531.274 42.5607L538.822 0H572.157L564.819 42.5607L545.74 109.442H526.242L531.274 42.5607Z" fill="#F3FF00"/>
<path d="M45.4953 139.213L38.7862 178H8.38574L15.0948 139.213L32.4965 78.2028H50.1078L45.4953 139.213ZM59.9617 59.7529C59.9617 69.3971 52.6237 76.5255 42.1408 76.5255C34.8027 76.5255 29.3516 72.7517 29.3516 65.6233C29.3516 55.979 37.1089 48.8506 47.1726 48.8506C54.5106 48.8506 59.9617 52.6245 59.9617 59.7529Z" stroke="#F3FF00" stroke-miterlimit="10"/>
<path d="M196.659 98.5396C196.659 129.779 174.435 145.713 133.132 145.713H62.4775L86.5883 8.38644H150.953C179.048 8.38644 199.175 14.8859 199.175 38.1579C199.175 56.3982 192.046 67.7198 178.209 72.7516C188.273 76.7351 196.659 84.4924 196.659 98.5396ZM148.228 99.3782C148.228 93.5078 143.196 92.6691 136.277 92.6691H119.924L116.779 110.28H136.487C141.728 110.49 148.228 107.345 148.228 99.3782ZM148.857 50.9471C148.857 45.2863 144.035 43.6091 139.213 43.6091H128.73L125.585 61.2204H134.6C142.148 61.2204 148.857 59.1238 148.857 50.9471Z" stroke="#F3FF00" stroke-miterlimit="10"/>
<path d="M222.657 8.38644H270.878L246.767 145.713H198.546L222.657 8.38644Z" stroke="#F3FF00" stroke-miterlimit="10"/>
<path d="M328.744 43.6091L325.809 59.9624H358.935L353.274 91.4112H320.148L316.794 110.28H369.418L363.128 145.503H262.492L286.813 8.38644H387.449L381.368 43.6091H328.744Z" stroke="#F3FF00" stroke-miterlimit="10"/>
<path d="M522.469 8.38644L498.358 145.713H461.249L425.397 75.8965L425.607 93.9271L416.591 145.922H375.708L399.819 8.38644H444.686L474.667 71.284L474.038 50.9471L481.586 8.38644H522.469Z" stroke="#F3FF00" stroke-miterlimit="10"/>
<path d="M523.726 138.165C523.726 127.682 532.112 119.715 543.224 119.715C551.401 119.715 557.481 123.908 557.481 131.875C557.481 142.568 548.885 150.535 537.773 150.535C529.596 150.535 523.726 146.132 523.726 138.165ZM539.66 50.9471L547.207 8.38644H580.543L573.205 50.9471L554.126 117.828H534.628L539.66 50.9471Z" stroke="#F3FF00" stroke-miterlimit="10"/>
</svg>
