<svg width="803" height="178" viewBox="0 0 803 178" fill="none" xmlns="http://www.w3.org/2000/svg">
<path d="M36.6431 130.838L30.0183 169.138H0L6.62473 130.838L23.8076 70.5948H41.1976L36.6431 130.838ZM50.9276 52.5838C50.9276 62.1068 43.6818 69.1456 33.3307 69.1456C26.0849 69.1456 20.7023 65.4192 20.7023 58.3804C20.7023 48.8574 28.3621 41.8186 38.2992 41.8186C45.545 41.8186 50.9276 45.338 50.9276 52.5838Z" fill="#F3FF00"/>
<path d="M139.948 67.6965H181.767L171.622 125.456C162.927 130.631 145.33 139.119 120.074 139.119C86.1219 139.119 58.1738 128.768 58.1738 89.2269C58.1738 34.1588 91.2975 0 144.709 0C170.38 0 183.216 10.1441 183.216 10.1441L169.759 45.131C169.759 45.131 156.51 36.022 138.706 36.022C119.039 36.022 107.445 54.24 107.445 84.6724C107.445 98.3359 113.449 103.304 126.905 103.304C129.39 103.304 131.874 103.304 133.944 103.097L139.948 67.6965Z" fill="#F3FF00"/>
<path d="M245.529 36.6429L242.63 52.7907H275.34L269.75 83.8441H237.041L233.728 102.476H285.691L279.48 137.256H180.109L203.917 1.86305H303.288L297.284 36.6429H245.529Z" fill="#F3FF00"/>
<path d="M436.818 1.86305L413.011 137.463H376.368L340.967 68.3174L341.174 86.1214L332.272 137.463H291.902L315.71 1.86305H360.013L389.617 63.9699L388.996 43.8887L396.242 1.86305H436.818Z" fill="#F3FF00"/>
<path d="M452.552 1.86305H500.167L476.359 137.463H428.744L452.552 1.86305Z" fill="#F3FF00"/>
<path d="M573.039 112.827H539.087L527.287 137.463H480.086L550.474 1.86305H600.573L623.346 137.463H576.145L573.039 112.827ZM568.899 81.7739L565.586 57.5522L553.993 81.7739H568.899Z" fill="#F3FF00"/>
<path d="M724.994 102.477L718.783 137.256H627.279L651.087 1.65636H698.702L680.898 102.477H724.994Z" fill="#F3FF00"/>
<path d="M737.416 130.01C737.416 119.659 745.697 111.792 756.669 111.792C764.743 111.792 770.747 115.933 770.747 123.8C770.747 134.358 762.259 142.225 751.287 142.225C743.213 142.018 737.416 137.877 737.416 130.01ZM753.15 43.8887L760.396 1.86305H793.312L786.066 43.8887L767.227 109.929H747.974L753.15 43.8887Z" fill="#F3FF00"/>
<path d="M44.9243 139.119L38.2996 177.418H8.28125L14.906 139.119L32.0889 78.8756H49.4788L44.9243 139.119ZM59.2089 60.8646C59.2089 70.3876 51.9631 77.4264 41.6119 77.4264C34.3661 77.4264 28.9835 73.7 28.9835 66.6612C28.9835 57.1382 36.6434 50.0994 46.5805 50.0994C53.8263 50.0994 59.2089 53.6188 59.2089 60.8646Z" stroke="#F3FF00" stroke-miterlimit="10"/>
<path d="M148.229 75.9776H190.048L179.904 133.737C171.209 138.913 153.612 147.4 128.355 147.4C94.4032 147.4 66.4551 137.049 66.4551 97.5079C66.4551 42.4398 99.5788 8.28107 152.991 8.28107C178.662 8.28107 191.497 18.4252 191.497 18.4252L178.04 53.4121C178.04 53.4121 164.791 44.3031 146.987 44.3031C127.32 44.3031 115.727 62.5211 115.727 92.9534C115.727 106.617 121.73 111.586 135.187 111.586C137.671 111.586 140.155 111.586 142.225 111.378L148.229 75.9776Z" stroke="#F3FF00" stroke-miterlimit="10"/>
<path d="M253.81 44.9241L250.912 61.0718H283.621L278.032 92.1253H245.322L242.01 110.757H293.972L287.762 145.537H188.391L212.198 9.93717H311.569L305.566 44.717H253.81V44.9241Z" stroke="#F3FF00" stroke-miterlimit="10"/>
<path d="M445.1 10.1439L421.292 145.744H384.649L349.248 76.5982L349.455 94.4022L340.553 145.744H300.184L323.991 10.1439H368.294L397.898 72.2508L397.277 52.1695L404.523 10.1439H445.1Z" stroke="#F3FF00" stroke-miterlimit="10"/>
<path d="M460.833 10.1439H508.448L484.641 145.744H437.025L460.833 10.1439Z" stroke="#F3FF00" stroke-miterlimit="10"/>
<path d="M581.32 121.108H547.369L535.568 145.744H488.367L558.755 10.1439H608.855L631.627 145.744H584.426L581.32 121.108ZM577.18 90.0547L573.868 65.833L562.274 90.0547H577.18Z" stroke="#F3FF00" stroke-miterlimit="10"/>
<path d="M733.275 110.757L727.065 145.537H635.561L659.368 9.93711H706.983L689.179 110.757H733.275Z" stroke="#F3FF00" stroke-miterlimit="10"/>
<path d="M745.697 138.291C745.697 127.94 753.978 120.073 764.95 120.073C773.024 120.073 779.028 124.213 779.028 132.08C779.028 142.638 770.54 150.505 759.568 150.505C751.494 150.298 745.697 146.158 745.697 138.291ZM761.431 52.1695L768.677 10.1438H801.593L794.348 52.1695L775.509 118.21H756.255L761.431 52.1695Z" stroke="#F3FF00" stroke-miterlimit="10"/>
</svg>
