<svg width="1120" height="171" viewBox="0 0 1120 171" fill="none" xmlns="http://www.w3.org/2000/svg">
<path d="M40.8726 133.771L34.5521 169.738H6.32031L12.6409 133.771L28.8636 76.9815H45.297L40.8726 133.771ZM54.3564 59.9446C54.3564 68.9889 47.4038 75.7196 37.7123 75.7196C30.7597 75.7196 25.7033 72.3542 25.7033 65.6236C25.7033 56.5793 32.8666 49.8487 42.3474 49.8487C49.3 49.8487 54.3564 53.214 54.3564 59.9446Z" stroke="#F3FF00" stroke-width="2" stroke-miterlimit="10"/>
<path d="M118.404 45.0111L115.666 60.155H146.636L141.369 89.3911H110.398L107.449 107.059H156.538L150.639 139.871H56.6738L79.2171 12.1993H172.972L167.283 45.0111H118.404Z" stroke="#F3FF00" stroke-width="2" stroke-miterlimit="10"/>
<path d="M263.145 76.1402L292.22 139.871H242.919L229.225 103.904L203.943 139.871H154.643L206.05 76.1402L178.239 12.1993H227.539L241.234 50.059L265.463 12.1993H313.92L263.145 76.1402Z" stroke="#F3FF00" stroke-width="2" stroke-miterlimit="10"/>
<path d="M298.961 94.4391C298.961 42.4871 330.143 10.5166 380.496 10.5166C404.725 10.5166 416.734 19.9815 416.734 19.9815L403.882 53.0037C403.882 53.0037 391.452 44.3801 374.597 44.3801C356.057 44.3801 345.101 61.6273 345.101 90.2325C345.101 103.063 350.79 107.9 363.431 107.9C381.761 107.9 393.348 100.959 398.615 97.8044L397.773 132.089C391.031 135.454 376.283 141.764 357.321 141.764C325.297 141.554 298.961 131.878 298.961 94.4391Z" stroke="#F3FF00" stroke-width="2" stroke-miterlimit="10"/>
<path d="M467.299 45.0111L464.56 60.155H495.53L490.263 89.3911H459.292L456.132 107.059H505.222L499.323 139.871H405.568L428.111 12.1993H521.866L516.177 45.0111H467.299Z" stroke="#F3FF00" stroke-width="2" stroke-miterlimit="10"/>
<path d="M603.401 107.059L597.502 139.871H511.121L533.664 12.1993H578.54L561.685 107.059H603.401Z" stroke="#F3FF00" stroke-width="2" stroke-miterlimit="10"/>
<path d="M667.87 45.0111L665.131 60.155H696.102L690.835 89.3911H659.864L656.704 107.059H705.793L699.894 139.871H606.14L628.683 12.1993H722.438L716.749 45.0111H667.87Z" stroke="#F3FF00" stroke-width="2" stroke-miterlimit="10"/>
<path d="M848.216 12.1993L825.884 139.871H791.331L758.043 74.8782L758.254 91.7048L749.827 140.081H711.903L734.447 12.4096H776.162L804.183 70.8819L803.762 51.952L810.714 12.4096H848.216V12.1993Z" stroke="#F3FF00" stroke-width="2" stroke-miterlimit="10"/>
<path d="M959.669 45.0111H927.855L911.001 139.871H866.125L882.98 45.0111H850.956L856.855 12.1993H965.568L959.669 45.0111Z" stroke="#F3FF00" stroke-width="2" stroke-miterlimit="10"/>
<path d="M1013.39 45.0111L1010.65 60.155H1041.62L1036.36 89.3911H1005.39L1002.23 107.059H1051.32L1045.42 139.871H951.663L974.206 12.1993H1067.96L1062.27 45.0111H1013.39Z" stroke="#F3FF00" stroke-width="2" stroke-miterlimit="10"/>
<path d="M1065.85 132.93C1065.85 123.044 1073.65 115.683 1083.97 115.683C1091.56 115.683 1097.25 119.679 1097.25 126.83C1097.25 136.926 1089.24 144.288 1078.92 144.288C1071.33 144.288 1065.85 140.292 1065.85 132.93ZM1080.81 51.952L1087.77 12.1993H1118.74L1111.78 51.952L1094.09 114.21H1075.97L1080.81 51.952Z" stroke="#F3FF00" stroke-width="2" stroke-miterlimit="10"/>
<path d="M34.5523 123.255L28.2318 159.221H0L6.32054 123.255L22.5433 66.4649H38.9767L34.5523 123.255ZM48.0361 49.428C48.0361 58.4723 41.0835 65.203 31.392 65.203C24.4394 65.203 19.383 61.8376 19.383 55.107C19.383 46.0627 26.5463 39.3321 36.0271 39.3321C42.9797 39.3321 48.0361 42.6974 48.0361 49.428Z" fill="#F3FF00"/>
<path d="M112.084 34.4945L109.345 49.6384H140.316L135.049 78.8745H104.078L101.129 96.5424H150.218L144.319 129.354H50.3535L72.8968 1.68266H166.651L160.963 34.4945H112.084Z" fill="#F3FF00"/>
<path d="M256.825 65.6236L285.899 129.354H236.599L222.905 93.3875L197.622 129.354H148.322L199.729 65.6236L171.919 1.68266H221.219L234.914 39.5424L259.142 1.68266H307.6L256.825 65.6236Z" fill="#F3FF00"/>
<path d="M292.641 83.9225C292.641 31.9705 323.822 0 374.176 0C398.405 0 410.414 9.46494 410.414 9.46494L397.562 42.4871C397.562 42.4871 385.132 33.8635 368.277 33.8635C349.737 33.8635 338.781 51.1107 338.781 79.7159C338.781 92.5461 344.47 97.3838 357.111 97.3838C375.44 97.3838 387.028 90.4428 392.295 87.2878L391.452 121.572C384.71 124.937 369.962 131.247 351.001 131.247C318.977 131.037 292.641 121.362 292.641 83.9225Z" fill="#F3FF00"/>
<path d="M460.978 34.4945L458.239 49.6384H489.21L483.943 78.8745H452.972L449.812 96.5424H498.901L493.002 129.354H399.248L421.791 1.68266H515.546L509.857 34.4945H460.978Z" fill="#F3FF00"/>
<path d="M597.081 96.5424L591.182 129.354H504.801L527.344 1.68266H572.22L555.365 96.5424H597.081Z" fill="#F3FF00"/>
<path d="M661.55 34.4945L658.811 49.6384H689.782L684.515 78.8745H653.544L650.384 96.5424H699.473L693.574 129.354H599.819L622.363 1.68266H716.117L710.429 34.4945H661.55Z" fill="#F3FF00"/>
<path d="M841.896 1.68266L819.563 129.354H785.011L751.723 64.3616L751.934 81.1882L743.506 129.565H705.583L728.126 1.89299H769.842L797.863 60.3653L797.442 41.4354L804.394 1.89299H841.896V1.68266Z" fill="#F3FF00"/>
<path d="M953.349 34.4945H921.535L904.68 129.354H859.805L876.659 34.4945H844.635L850.534 1.68266H959.248L953.349 34.4945Z" fill="#F3FF00"/>
<path d="M1007.07 34.4945L1004.33 49.6384H1035.3L1030.04 78.8745H999.067L995.907 96.5424H1045L1039.1 129.354H945.342L967.886 1.68266H1061.64L1055.95 34.4945H1007.07Z" fill="#F3FF00"/>
<path d="M1059.53 122.413C1059.53 112.528 1067.33 105.166 1077.65 105.166C1085.24 105.166 1090.93 109.162 1090.93 116.314C1090.93 126.41 1082.92 133.771 1072.6 133.771C1065.01 133.771 1059.53 129.775 1059.53 122.413ZM1074.49 41.4354L1081.44 1.68266H1112.42L1105.46 41.4354L1087.77 103.694H1069.65L1074.49 41.4354Z" fill="#F3FF00"/>
</svg>
