<svg width="72" height="69" viewBox="0 0 72 69" fill="none" xmlns="http://www.w3.org/2000/svg">
<g id="Estrellas - vidas">
<path id="Vector" d="M71.5 25.9L46.8 22.4L35.7 0L24.7 22.4L0 26.1L17.9 43.4L13.8 68.1L35.8 56.4L58 68L53.7 43.4L71.5 25.9Z" fill="#F6FF39"/>
<path id="Vector_2" d="M45.7 23.5L68 26.7L51.9 42.4L55.8 64.6L35.8 54.2L15.9 64.7L19.7 42.5L3.5 26.9L25.8 23.6L35.7 3.39999L45.7 23.5Z" fill="#D0DA12"/>
<path id="Vector_3" d="M53.1 41.2L68 26.7L45.7 23.5L35.7 3.39999L25.8 23.6L3.5 26.9L18.4 41.2H53.1Z" fill="#F3FF00"/>
</g>
</svg>
