<svg width="32" height="30" viewBox="0 0 32 30" fill="none" xmlns="http://www.w3.org/2000/svg">
<g id="Estrellas - vidas">
<path id="Vector" d="M32 11.4097L20.9455 9.86784L15.9776 0L11.0545 9.86784L0 11.4978L8.01119 19.1189L6.17622 30L16.0224 24.8458L25.958 29.9559L24.0336 19.1189L32 11.4097Z" fill="#351360"/>
<path id="Vector_2" d="M20.4531 10.3524L30.4335 11.7621L23.2279 18.6784L24.9734 28.4582L16.0224 23.8767L7.11606 28.5022L8.81676 18.7225L1.56641 11.8502L11.5468 10.3965L15.9776 1.4978L20.4531 10.3524Z" fill="#351360"/>
<path id="Vector_3" d="M23.765 18.1498L30.4335 11.7621L20.4531 10.3524L15.9776 1.4978L11.5468 10.3965L1.56641 11.8502L8.23494 18.1498H23.765Z" fill="#351360"/>
</g>
</svg>
