<svg width="77" height="80" viewBox="0 0 77 80" fill="none" xmlns="http://www.w3.org/2000/svg">
<g id="icono-swipe">
<path id="Vector" d="M57.5471 32.2074C56.31 32.2065 55.1165 32.6642 54.1972 33.4919C53.6152 31.3687 51.7935 29.9849 49.3735 29.9849C48.7057 29.9846 48.0447 30.1178 47.4292 30.3768C46.8138 30.6358 46.2564 31.0153 45.7898 31.493C45.4787 30.7882 45.0094 30.1646 44.4183 29.6705C43.8272 29.1764 43.1302 28.8252 42.3814 28.644C41.6326 28.4628 40.8521 28.4566 40.1005 28.6258C39.3489 28.795 38.6464 29.1351 38.0475 29.6197L38.0475 16.1665C38.0475 12.8588 35.5508 11.1284 33.0845 11.1284C31.8297 11.1143 30.6159 11.5745 29.6857 12.4167C28.9753 13.0722 28.1285 14.2693 28.1285 16.2453L28.0497 37.8694V44.0238C25.1281 37.2461 23.2063 35.4487 19.6272 35.1706C18.822 35.1066 18.014 35.2515 17.2813 35.5914C16.5485 35.9312 15.9159 36.4544 15.4447 37.1104C14.9586 37.7724 14.6516 38.5485 14.5533 39.3639C14.455 40.1792 14.5689 41.0061 14.8837 41.7646C15.4635 43.1725 15.6988 44.6831 16.0548 46.9697C16.3388 48.7938 16.6922 51.0638 17.3519 54.0815C18.8818 61.0813 21.946 65.617 23.6343 67.6968C23.1035 67.9456 22.6545 68.3404 22.3396 68.8349C22.0248 69.3294 21.8571 69.9033 21.8562 70.4895V76.4075C21.8572 77.2263 22.1828 78.0112 22.7618 78.5902C23.3408 79.1692 24.1257 79.4948 24.9445 79.4958L58.5807 79.4958C59.3995 79.4949 60.1845 79.1692 60.7635 78.5902C61.3425 78.0113 61.6682 77.2263 61.6692 76.4075V70.4895C61.6689 69.993 61.5487 69.5038 61.3188 69.0636C61.089 68.6235 60.7563 68.2453 60.349 67.9612L62.215 61.4392C62.4609 60.58 62.5851 59.6906 62.5839 58.7969L62.5684 37.2288C62.5668 35.8975 62.0373 34.6212 61.096 33.6799C60.1547 32.7385 58.8784 32.209 57.5471 32.2074ZM59.7995 76.4075C59.7991 76.7306 59.6705 77.0403 59.442 77.2688C59.2136 77.4972 58.9038 77.6257 58.5807 77.6261L24.9437 77.6261C24.6207 77.6257 24.3109 77.4972 24.0825 77.2687C23.854 77.0403 23.7255 76.7306 23.7252 76.4075V70.4895C23.7255 70.1664 23.854 69.8566 24.0824 69.6282C24.3109 69.3997 24.6206 69.2711 24.9437 69.2708L58.5807 69.2708C58.9038 69.2711 59.2136 69.3997 59.4421 69.6281C59.6706 69.8566 59.7991 70.1664 59.7995 70.4895V76.4075ZM60.4174 60.9248L58.5645 67.4011L25.8537 67.4011C24.8316 66.2948 20.9193 61.6501 19.1777 53.6823C18.5302 50.7201 18.1816 48.4811 17.9015 46.6821C17.5384 44.3503 17.276 42.6656 16.6118 41.0527C16.4198 40.5893 16.3506 40.0842 16.4109 39.5862C16.4712 39.0882 16.6589 38.6142 16.956 38.21C17.2403 37.8133 17.6221 37.4968 18.0646 37.291C18.5071 37.0852 18.9952 36.9972 19.4817 37.0353C22.3735 37.2598 23.9637 38.4195 28.1117 49.1632C28.19 49.3673 28.3373 49.5375 28.5281 49.6443C28.7189 49.751 28.941 49.7875 29.1559 49.7474C29.3708 49.7073 29.5649 49.5932 29.7044 49.4249C29.8439 49.2565 29.9199 49.0447 29.9194 48.826V37.8726L29.9998 16.2486C29.9998 15.2174 30.3301 14.3676 30.9552 13.7908C31.5404 13.2678 32.3013 12.9846 33.086 12.9979C34.6258 12.9979 36.1793 13.9777 36.1793 16.1663L36.1793 41.1468C36.1793 41.3947 36.2778 41.6325 36.4532 41.8079C36.6285 41.9832 36.8663 42.0817 37.1142 42.0817C37.3621 42.0817 37.5999 41.9832 37.7752 41.8079C37.9506 41.6325 38.0491 41.3947 38.0491 41.1468V33.5255C38.0491 32.6896 38.3811 31.8879 38.9722 31.2968C39.5633 30.7057 40.365 30.3737 41.2009 30.3737C42.0369 30.3737 42.8386 30.7057 43.4296 31.2968C44.0207 31.8879 44.3528 32.6896 44.3528 33.5255V42.7453C44.3528 42.9932 44.4513 43.231 44.6266 43.4063C44.8019 43.5816 45.0397 43.6801 45.2877 43.6801C45.5356 43.6801 45.7734 43.5816 45.9487 43.4063C46.124 43.231 46.2225 42.9932 46.2225 42.7453V35.0065C46.2235 34.1709 46.5558 33.3697 47.1467 32.7788C47.7376 32.188 48.5388 31.8556 49.3744 31.8546C50.8982 31.8546 52.5263 32.6828 52.5263 35.0065V46.1883C52.5263 46.4363 52.6248 46.6741 52.8001 46.8494C52.9754 47.0247 53.2132 47.1232 53.4611 47.1232C53.7091 47.1232 53.9469 47.0247 54.1222 46.8494C54.2975 46.6741 54.396 46.4363 54.396 46.1883V37.2293C54.396 36.8154 54.4775 36.4055 54.6359 36.0231C54.7943 35.6407 55.0265 35.2933 55.3192 35.0006C55.6118 34.7079 55.9593 34.4757 56.3417 34.3173C56.7241 34.1589 57.134 34.0774 57.5479 34.0774C57.9618 34.0774 58.3716 34.1589 58.754 34.3173C59.1364 34.4757 59.4839 34.7079 59.7766 35.0006C60.0693 35.2933 60.3014 35.6407 60.4598 36.0231C60.6182 36.4055 60.6997 36.8154 60.6997 37.2293L60.7153 58.7986C60.7159 59.5178 60.6157 60.2335 60.4174 60.9248ZM76.3359 10.8191L70.3589 1.98248C70.2607 1.83748 70.1239 1.72295 69.9638 1.65193C69.8038 1.5809 69.627 1.55625 69.4537 1.58077C69.2803 1.60529 69.1173 1.678 68.9833 1.79061C68.8492 1.90323 68.7495 2.05123 68.6954 2.21776L67.7699 5.06908C58.0898 1.9669 48.2767 0.394005 38.5855 0.394005C28.8878 0.394005 19.0677 1.96893 9.38132 5.07609L8.49227 2.24643C8.43978 2.07938 8.34144 1.93042 8.20843 1.81654C8.07543 1.70265 7.91311 1.62841 7.73998 1.60226C7.56684 1.57612 7.38984 1.59912 7.22914 1.66866C7.06844 1.7382 6.93049 1.85147 6.83102 1.99557L0.771427 10.7756C0.690672 10.8926 0.637665 11.0265 0.616437 11.1671C0.59521 11.3076 0.606322 11.4512 0.648928 11.5868C0.691534 11.7224 0.764511 11.8466 0.862309 11.9498C0.960107 12.0529 1.08015 12.1325 1.2133 12.1823L11.2054 15.9198C11.3694 15.9812 11.5473 15.9952 11.7189 15.9603C11.8905 15.9255 12.0489 15.8431 12.176 15.7227C12.3031 15.6022 12.3938 15.4485 12.4377 15.279C12.4817 15.1095 12.4772 14.9311 12.4247 14.764L11.644 12.2787C20.5504 9.41866 29.6098 7.96885 38.5855 7.96885C47.5319 7.96885 56.5614 9.40947 65.4398 12.251L64.6451 14.6972C64.5911 14.8637 64.5849 15.0421 64.6273 15.212C64.6697 15.3819 64.759 15.5365 64.8849 15.6581C65.0109 15.7798 65.1684 15.8636 65.3397 15.9001C65.511 15.9365 65.689 15.9241 65.8536 15.8644L75.8803 12.2207C76.0139 12.1722 76.1346 12.0938 76.2334 11.9915C76.3321 11.8893 76.4062 11.7659 76.4501 11.6307C76.4939 11.4955 76.5064 11.352 76.4865 11.2113C76.4666 11.0705 76.4149 10.9362 76.3352 10.8185L76.3359 10.8191ZM2.99109 10.8502L7.28225 4.63328L10.0672 13.4978L2.99109 10.8502ZM38.5855 6.09804C29.4191 6.09804 20.1713 7.57652 11.0835 10.4937L9.94161 6.85871C19.446 3.80857 29.0783 2.26232 38.5855 2.26232C48.0806 2.26232 57.6996 3.80484 67.1922 6.84686L66.0163 10.471C56.9524 7.57029 47.7284 6.09913 38.5855 6.09913V6.09804ZM67.0152 13.4523L69.8821 4.61427L74.1148 10.8719L67.0152 13.4523Z" fill="white"/>
</g>
</svg>
