<svg width="80" height="76" viewBox="0 0 80 76" fill="none" xmlns="http://www.w3.org/2000/svg">
<path d="M31.8134 18.9486C31.8125 20.1857 32.2702 21.3792 33.0979 22.2985C30.9747 22.8805 29.5909 24.7022 29.5909 27.1223C29.5906 27.79 29.7238 28.451 29.9828 29.0665C30.2418 29.6819 30.6213 30.2393 31.099 30.7059C30.3942 31.017 29.7706 31.4864 29.2765 32.0775C28.7824 32.6686 28.4312 33.3656 28.25 34.1144C28.0688 34.8632 28.0626 35.6436 28.2318 36.3952C28.401 37.1468 28.7411 37.8493 29.2257 38.4482L15.7725 38.4482C12.4648 38.4482 10.7344 40.9449 10.7344 43.4112C10.7203 44.666 11.1805 45.8799 12.0227 46.8101C12.6782 47.5204 13.8753 48.3672 15.8513 48.3672L37.4753 48.4461L43.6298 48.4461C36.8521 51.3677 35.0547 53.2894 34.7766 56.8685C34.7126 57.6737 34.8575 58.4817 35.1974 59.2145C35.5372 59.9472 36.0604 60.5798 36.7164 61.0511C37.3783 61.5371 38.1545 61.8442 38.9699 61.9424C39.7852 62.0407 40.6121 61.9269 41.3706 61.612C42.7785 61.0322 44.2891 60.7969 46.5757 60.4409C48.3998 60.1569 50.6698 59.8035 53.6875 59.1438C60.6873 57.6139 65.223 54.5498 67.3028 52.8614C67.5516 53.3922 67.9464 53.8412 68.4409 54.1561C68.9354 54.4709 69.5093 54.6386 70.0955 54.6395L76.0135 54.6395C76.8323 54.6386 77.6172 54.3129 78.1962 53.7339C78.7752 53.1549 79.1008 52.37 79.1018 51.5512L79.1018 17.915C79.1009 17.0962 78.7752 16.3112 78.1962 15.7322C77.6173 15.1532 76.8323 14.8275 76.0135 14.8265L70.0955 14.8265C69.5989 14.8269 69.1098 14.9471 68.6696 15.1769C68.2294 15.4067 67.8513 15.7394 67.5672 16.1467L61.0451 14.2807C60.186 14.0348 59.2966 13.9106 58.4029 13.9118L36.8348 13.9274C35.5035 13.9289 34.2272 14.4584 33.2859 15.3997C32.3445 16.3411 31.8149 17.6174 31.8134 18.9486ZM76.0135 16.6963C76.3366 16.6967 76.6463 16.8252 76.8747 17.0537C77.1032 17.2822 77.2317 17.5919 77.2321 17.915L77.2321 51.552C77.2317 51.8751 77.1032 52.1848 76.8747 52.4132C76.6463 52.6417 76.3365 52.7702 76.0135 52.7706L70.0955 52.7706C69.7724 52.7702 69.4626 52.6417 69.2342 52.4133C69.0057 52.1848 68.8771 51.8751 68.8768 51.552L68.8768 17.915C68.8771 17.5919 69.0057 17.2821 69.2341 17.0536C69.4626 16.8251 69.7724 16.6966 70.0955 16.6963L76.0135 16.6963ZM60.5308 16.0783L67.0071 17.9312L67.0071 50.6421C65.9008 51.6642 61.2561 55.5764 53.2883 57.318C50.3261 57.9656 48.0871 58.3141 46.2881 58.5943C43.9563 58.9573 42.2716 59.2197 40.6587 59.8839C40.1953 60.0759 39.6902 60.1451 39.1922 60.0848C38.6942 60.0245 38.2202 59.8368 37.816 59.5397C37.4193 59.2554 37.1028 58.8736 36.897 58.4311C36.6912 57.9886 36.6032 57.5005 36.6413 57.014C36.8658 54.1222 38.0255 52.532 48.7692 48.3841C48.9733 48.3058 49.1435 48.1584 49.2503 47.9676C49.357 47.7769 49.3935 47.5547 49.3534 47.3398C49.3133 47.1249 49.1992 46.9308 49.0309 46.7914C48.8625 46.6519 48.6507 46.5758 48.432 46.5764L37.4786 46.5764L15.8546 46.496C14.8234 46.496 13.9736 46.1656 13.3968 45.5405C12.8738 44.9554 12.5906 44.1944 12.6039 43.4097C12.6039 41.87 13.5836 40.3164 15.7723 40.3164L40.7528 40.3164C41.0007 40.3164 41.2385 40.2179 41.4138 40.0426C41.5892 39.8673 41.6877 39.6295 41.6877 39.3815C41.6877 39.1336 41.5892 38.8958 41.4138 38.7205C41.2385 38.5452 41.0007 38.4467 40.7528 38.4467L33.1315 38.4467C32.2956 38.4467 31.4939 38.1146 30.9028 37.5235C30.3117 36.9324 29.9797 36.1307 29.9797 35.2948C29.9797 34.4589 30.3117 33.6572 30.9028 33.0661C31.4939 32.475 32.2956 32.1429 33.1315 32.1429L42.3513 32.1429C42.5992 32.1429 42.837 32.0444 43.0123 31.8691C43.1876 31.6938 43.2861 31.456 43.2861 31.2081C43.2861 30.9601 43.1876 30.7223 43.0123 30.547C42.837 30.3717 42.5992 30.2732 42.3513 30.2732L34.6125 30.2732C33.7769 30.2723 32.9757 29.9399 32.3848 29.349C31.794 28.7581 31.4616 27.957 31.4606 27.1213C31.4606 25.5975 32.2888 23.9695 34.6125 23.9695L45.7943 23.9695C46.0423 23.9695 46.2801 23.871 46.4554 23.6956C46.6307 23.5203 46.7292 23.2825 46.7292 23.0346C46.7292 22.7867 46.6307 22.5489 46.4554 22.3735C46.2801 22.1982 46.0423 22.0997 45.7943 22.0997L36.8353 22.0997C36.4214 22.0997 36.0115 22.0182 35.6291 21.8598C35.2467 21.7014 34.8992 21.4692 34.6066 21.1766C34.3139 20.8839 34.0817 20.5364 33.9233 20.154C33.7649 19.7716 33.6834 19.3618 33.6834 18.9479C33.6834 18.5339 33.7649 18.1241 33.9233 17.7417C34.0817 17.3593 34.3139 17.0118 34.6066 16.7191C34.8992 16.4265 35.2467 16.1943 35.6291 16.0359C36.0115 15.8775 36.4214 15.796 36.8353 15.796L58.4046 15.7804C59.1238 15.7798 59.8395 15.8801 60.5308 16.0783ZM10.4251 0.159858L1.58848 6.13687C1.44347 6.23499 1.32894 6.37187 1.25792 6.5319C1.1869 6.69193 1.16224 6.86868 1.18676 7.04205C1.21128 7.2154 1.28399 7.37839 1.39661 7.51244C1.50922 7.6465 1.65722 7.74624 1.82375 7.8003L4.67507 8.72581C1.5729 18.406 -2.08376e-06 28.219 -1.66014e-06 37.9102C-1.23624e-06 47.608 1.57492 57.428 4.68208 67.1144L1.85242 68.0035C1.68537 68.0559 1.53642 68.1543 1.42253 68.2873C1.30864 68.4203 1.2344 68.5826 1.20826 68.7558C1.18211 68.9289 1.20512 69.1059 1.27465 69.2666C1.34419 69.4273 1.45746 69.5652 1.60157 69.6647L10.3816 75.7243C10.4986 75.8051 10.6325 75.8581 10.7731 75.8793C10.9136 75.9005 11.0572 75.8894 11.1928 75.8468C11.3284 75.8042 11.4526 75.7312 11.5557 75.6334C11.6589 75.5356 11.7384 75.4156 11.7883 75.2824L15.5258 65.2903C15.5872 65.1263 15.6012 64.9484 15.5663 64.7768C15.5315 64.6052 15.4491 64.4468 15.3287 64.3197C15.2082 64.1927 15.0545 64.102 14.885 64.058C14.7155 64.014 14.5371 64.0185 14.37 64.071L11.8847 64.8517C9.02465 55.9453 7.57484 46.8859 7.57484 37.9102C7.57484 28.9638 9.01546 19.9343 11.857 11.0559L14.3032 11.8506C14.4697 11.9046 14.6481 11.9108 14.818 11.8684C14.9879 11.826 15.1425 11.7367 15.2641 11.6108C15.3858 11.4849 15.4696 11.3273 15.506 11.156C15.5425 10.9847 15.5301 10.8067 15.4703 10.6421L11.8267 0.615447C11.7782 0.481864 11.6998 0.361106 11.5975 0.262374C11.4953 0.163642 11.3719 0.0895228 11.2366 0.0456614C11.1014 0.00179242 10.958 -0.0106664 10.8173 0.00923109C10.6765 0.0291286 10.5422 0.0808559 10.4244 0.160484L10.4251 0.159858ZM10.4562 73.5046L4.23927 69.2135L13.1038 66.4285L10.4562 73.5046ZM5.70404 37.9102C5.70404 47.0767 7.18252 56.3244 10.0997 65.4122L6.4647 66.5541C3.41457 57.0497 1.86831 47.4174 1.86831 37.9102C1.86831 28.4152 3.41083 18.7961 6.45286 9.30355L10.077 10.4794C7.17628 19.5434 5.70513 28.7673 5.70513 37.9102L5.70404 37.9102ZM13.0583 9.48055L4.22026 6.61365L10.4779 2.38093L13.0583 9.48055Z" fill="white"/>
</svg>
